<svg width="16" height="16" viewBox="0 0 16 16" fill="none" xmlns="http://www.w3.org/2000/svg">
<path d="M8.5 4.50684C8.5 5.88755 7.38071 7.00684 6 7.00684C4.61929 7.00684 3.5 5.88755 3.5 4.50684C3.5 3.12612 4.61929 2.00684 6 2.00684C7.38071 2.00684 8.5 3.12612 8.5 4.50684Z" fill="#D2D2D2"/>
<path d="M9.99951 13.0068C10.5518 13.0068 11.0099 12.5546 10.9008 12.0132C10.44 9.7278 8.42072 8.00684 5.99951 8.00684C3.57829 8.00684 1.55903 9.7278 1.09823 12.0132C0.989075 12.5546 1.44722 13.0068 1.99951 13.0068H9.99951Z" fill="#D2D2D2"/>
<path d="M12.5 3.50684C12.9142 3.50684 13.25 3.84262 13.25 4.25684V5.25684H14.25C14.6642 5.25684 15 5.59262 15 6.00684C15 6.42105 14.6642 6.75684 14.25 6.75684H13.25V7.75684C13.25 8.17105 12.9142 8.50684 12.5 8.50684C12.0858 8.50684 11.75 8.17105 11.75 7.75684V6.75684H10.75C10.3358 6.75684 10 6.42105 10 6.00684C10 5.59262 10.3358 5.25684 10.75 5.25684H11.75V4.25684C11.75 3.84262 12.0858 3.50684 12.5 3.50684Z" fill="#D2D2D2"/>
</svg>
